<svg width="81" height="45" viewBox="0 0 81 45" fill="none" xmlns="http://www.w3.org/2000/svg">
<path d="M35.4688 41.0938L36.3866 41.4907L36.3904 41.4818L35.4688 41.0938ZM32.0312 44.5L31.6432 43.5783L31.6343 43.5821L32.0312 44.5ZM4.65625 44.5L4.25932 45.4179L4.26819 45.4216L4.65625 44.5ZM2.625 43.125L1.91789 43.8321L2.625 43.125ZM1.25 41.0938L0.328322 41.4818L0.332143 41.4907L1.25 41.0938ZM1.25 4.125L2.1679 4.52193L2.17164 4.51306L1.25 4.125ZM2.625 2.09375L3.31914 2.81359L3.32568 2.80728L3.33211 2.80086L2.625 2.09375ZM4.65625 0.71875L5.05319 1.63668L5.06462 1.63157L4.65625 0.71875ZM32.0312 0.71875L31.6137 1.62743L31.6284 1.63414L31.6432 1.64039L32.0312 0.71875ZM34.0938 2.09375L33.3866 2.80086L33.3931 2.80728L33.3996 2.81359L34.0938 2.09375ZM35.4688 4.125L34.5471 4.51307L34.5509 4.52191L35.4688 4.125ZM7.15625 6.59375V5.59375H6.15625V6.59375H7.15625ZM7.15625 38.5938H6.15625V39.5938H7.15625V38.5938ZM29.5625 38.5938V39.5938H30.5625V38.5938H29.5625ZM29.5625 6.59375H30.5625V5.59375H29.5625V6.59375ZM34.9688 38.5938C34.9688 39.338 34.8277 40.0392 34.5471 40.7057L36.3904 41.4818C36.7764 40.565 36.9688 39.5995 36.9688 38.5938H34.9688ZM34.5509 40.6968C34.2667 41.354 33.8792 41.9254 33.3866 42.4179L34.8009 43.8321C35.475 43.158 36.0041 42.3751 36.3866 41.4907L34.5509 40.6968ZM33.3866 42.4179C32.8985 42.906 32.3206 43.2931 31.6432 43.5784L32.4193 45.4216C33.3252 45.0402 34.1223 44.5107 34.8009 43.8321L33.3866 42.4179ZM31.6343 43.5821C30.9941 43.859 30.3068 44 29.5625 44V46C30.5682 46 31.5268 45.8076 32.4282 45.4179L31.6343 43.5821ZM29.5625 44H7.15625V46H29.5625V44ZM7.15625 44C6.41198 44 5.71081 43.859 5.04431 43.5784L4.26819 45.4216C5.18503 45.8077 6.15052 46 7.15625 46V44ZM5.05316 43.5821C4.39596 43.2979 3.82463 42.9104 3.33211 42.4179L1.91789 43.8321C2.59204 44.5063 3.37487 45.0354 4.25934 45.4179L5.05316 43.5821ZM3.33211 42.4179C2.83958 41.9254 2.45205 41.354 2.16786 40.6968L0.332143 41.4907C0.714614 42.3751 1.24375 43.158 1.91789 43.8321L3.33211 42.4179ZM2.17164 40.7057C1.891 40.0392 1.75 39.338 1.75 38.5938H-0.25C-0.25 39.5995 -0.05767 40.565 0.328365 41.4818L2.17164 40.7057ZM1.75 38.5938V6.59375H-0.25V38.5938H1.75ZM1.75 6.59375C1.75 5.84943 1.89098 5.16218 2.16786 4.52191L0.332143 3.72809C-0.0576493 4.62948 -0.25 5.58807 -0.25 6.59375H1.75ZM2.17164 4.51306C2.4556 3.83864 2.8391 3.27648 3.31914 2.81359L1.93086 1.37391C1.24423 2.03602 0.711068 2.82802 0.328365 3.73694L2.17164 4.51306ZM3.33211 2.80086C3.82463 2.30833 4.39596 1.9208 5.05316 1.63661L4.25934 -0.199107C3.37487 0.183364 2.59204 0.712499 1.91789 1.38664L3.33211 2.80086ZM5.06462 1.63157C5.72664 1.3354 6.4207 1.1875 7.15625 1.1875V-0.8125C6.1418 -0.8125 5.1692 -0.606234 4.24788 -0.194068L5.06462 1.63157ZM7.15625 1.1875H29.5625V-0.8125H7.15625V1.1875ZM29.5625 1.1875C30.298 1.1875 30.978 1.33535 31.6137 1.62743L32.4488 -0.189927C31.5428 -0.60618 30.577 -0.8125 29.5625 -0.8125V1.1875ZM31.6432 1.64039C32.3206 1.92563 32.8985 2.31276 33.3866 2.80086L34.8009 1.38664C34.1223 0.708073 33.3252 0.17854 32.4193 -0.202885L31.6432 1.64039ZM33.3996 2.81359C33.8796 3.27648 34.2632 3.83864 34.5471 4.51306L36.3904 3.73694C36.0077 2.82802 35.4745 2.03602 34.7879 1.37391L33.3996 2.81359ZM34.5509 4.52191C34.8278 5.16218 34.9688 5.84943 34.9688 6.59375H36.9688C36.9688 5.58807 36.7764 4.62948 36.3866 3.72809L34.5509 4.52191ZM34.9688 6.59375V38.5938H36.9688V6.59375H34.9688ZM6.15625 6.59375V38.5938H8.15625V6.59375H6.15625ZM7.15625 39.5938H29.5625V37.5938H7.15625V39.5938ZM30.5625 38.5938V6.59375H28.5625V38.5938H30.5625ZM29.5625 5.59375H7.15625V7.59375H29.5625V5.59375ZM52.9613 6.59375V5.59375H51.9613V6.59375H52.9613ZM52.9613 12.375V13.375H53.9613V12.375H52.9613ZM46.555 12.375H45.555V13.375H46.555V12.375ZM47.055 4.125L47.9729 4.52193L47.9766 4.51306L47.055 4.125ZM48.43 2.09375L49.1241 2.81359L49.1307 2.80728L49.1371 2.80086L48.43 2.09375ZM50.4613 0.71875L50.8582 1.63668L50.8696 1.63157L50.4613 0.71875ZM75.7113 0.71875L75.2938 1.62743L75.3084 1.63414L75.3232 1.64039L75.7113 0.71875ZM77.7425 2.09375L77.0227 2.78789L77.0353 2.80097L77.0484 2.81359L77.7425 2.09375ZM79.1175 4.125L78.1959 4.51306L78.2021 4.52788L78.2088 4.5425L79.1175 4.125ZM78.5863 19L77.7542 18.4453L77.7493 18.4528L78.5863 19ZM75.1488 21.7188L75.5734 22.6241L75.5801 22.621L75.5867 22.6177L75.1488 21.7188ZM52.9613 32.125L52.5366 31.2196L51.9613 31.4895V32.125H52.9613ZM52.9613 38.5938H51.9613V39.5938H52.9613V38.5938ZM74.055 38.5938V39.5938H75.055V38.5938H74.055ZM74.055 32.8438V31.8438H73.055V32.8438H74.055ZM80.4613 32.8438H81.4613V31.8438H80.4613V32.8438ZM80.4613 45V46H81.4613V45H80.4613ZM46.555 45H45.555V46H46.555V45ZM46.805 30.875L45.8402 30.6119L45.8365 30.6256L45.8332 30.6394L46.805 30.875ZM47.6175 29.0312L48.4545 29.5785L47.6175 29.0312ZM48.9925 27.5625L49.6064 28.3519L49.6103 28.3488L48.9925 27.5625ZM51.0238 26.3125L50.5985 25.4073L50.5863 25.4133L51.0238 26.3125ZM73.2425 15.875L73.6677 16.7801L74.2425 16.5101V15.875H73.2425ZM73.2425 6.59375H74.2425V5.59375H73.2425V6.59375ZM51.9613 6.59375V12.375H53.9613V6.59375H51.9613ZM52.9613 11.375H46.555V13.375H52.9613V11.375ZM47.555 12.375V6.59375H45.555V12.375H47.555ZM47.555 6.59375C47.555 5.84943 47.696 5.16218 47.9729 4.52191L46.1371 3.72809C45.7474 4.62948 45.555 5.58807 45.555 6.59375H47.555ZM47.9766 4.51306C48.2606 3.83864 48.6441 3.27648 49.1241 2.81359L47.7359 1.37391C47.0492 2.03602 46.5161 2.82802 46.1334 3.73694L47.9766 4.51306ZM49.1371 2.80086C49.6296 2.30833 50.201 1.9208 50.8582 1.63661L50.0643 -0.199107C49.1799 0.183364 48.397 0.712499 47.7229 1.38664L49.1371 2.80086ZM50.8696 1.63157C51.5316 1.3354 52.2257 1.1875 52.9613 1.1875V-0.8125C51.9468 -0.8125 50.9742 -0.606234 50.0529 -0.194068L50.8696 1.63157ZM52.9613 1.1875H73.2425V-0.8125H52.9613V1.1875ZM73.2425 1.1875C73.978 1.1875 74.658 1.33535 75.2938 1.62743L76.1288 -0.189927C75.2228 -0.60618 74.257 -0.8125 73.2425 -0.8125V1.1875ZM75.3232 1.64039C75.9976 1.92435 76.5598 2.30785 77.0227 2.78789L78.4623 1.39961C77.8002 0.712981 77.0082 0.179818 76.0993 -0.202885L75.3232 1.64039ZM77.0484 2.81359C77.5284 3.27648 77.9119 3.83864 78.1959 4.51306L80.0391 3.73694C79.6564 2.82802 79.1233 2.03602 78.4366 1.37391L77.0484 2.81359ZM78.2088 4.5425C78.5009 5.1782 78.6488 5.85821 78.6488 6.59375H80.6488C80.6488 5.57929 80.4424 4.61346 80.0262 3.7075L78.2088 4.5425ZM78.6488 6.59375V14.7812H80.6488V6.59375H78.6488ZM78.6488 14.7812C78.6488 15.5948 78.5711 16.2947 78.4269 16.8894L80.3706 17.3606C80.5598 16.5803 80.6488 15.7177 80.6488 14.7812H78.6488ZM78.4269 16.8894C78.2865 17.4685 78.0613 17.9846 77.7542 18.4453L79.4183 19.5547C79.8612 18.8904 80.1777 18.1565 80.3706 17.3606L78.4269 16.8894ZM77.7493 18.4528C77.4614 18.8931 77.0814 19.3029 76.5973 19.6794L77.8252 21.2581C78.4661 20.7596 79.0028 20.1902 79.4232 19.5472L77.7493 18.4528ZM76.5973 19.6794C76.1018 20.0648 75.4767 20.4466 74.7108 20.8198L75.5867 22.6177C76.4458 22.1992 77.1957 21.7477 77.8252 21.2581L76.5973 19.6794ZM74.7241 20.8134L52.5366 31.2196L53.3859 33.0304L75.5734 22.6241L74.7241 20.8134ZM51.9613 32.125V38.5938H53.9613V32.125H51.9613ZM52.9613 39.5938H74.055V37.5938H52.9613V39.5938ZM75.055 38.5938V32.8438H73.055V38.5938H75.055ZM74.055 33.8438H80.4613V31.8438H74.055V33.8438ZM79.4613 32.8438V45H81.4613V32.8438H79.4613ZM80.4613 44H46.555V46H80.4613V44ZM47.555 45V33.2188H45.555V45H47.555ZM47.555 33.2188C47.555 32.4052 47.6327 31.7053 47.7769 31.1106L45.8332 30.6394C45.644 31.4197 45.555 32.2823 45.555 33.2188H47.555ZM47.7698 31.1381C47.9325 30.5413 48.163 30.0243 48.4545 29.5785L46.7805 28.484C46.3637 29.1215 46.0525 29.8337 45.8402 30.6119L47.7698 31.1381ZM48.4545 29.5785C48.7424 29.1382 49.1224 28.7283 49.6064 28.3519L48.3786 26.7731C47.7376 27.2717 47.201 27.841 46.7805 28.484L48.4545 29.5785ZM49.6103 28.3488C50.1299 27.9406 50.7447 27.5603 51.4612 27.2117L50.5863 25.4133C49.7611 25.8147 49.0218 26.2677 48.3747 26.7762L49.6103 28.3488ZM51.4489 27.2176L73.6677 16.7801L72.8173 14.9699L50.5986 25.4074L51.4489 27.2176ZM74.2425 15.875V6.59375H72.2425V15.875H74.2425ZM73.2425 5.59375H52.9613V7.59375H73.2425V5.59375Z" fill="#E1E2E5"/>
</svg>
