<svg width="80" height="45" viewBox="0 0 80 45" fill="none" xmlns="http://www.w3.org/2000/svg">
<path d="M35.4688 41.0938L36.3866 41.4907L36.3904 41.4818L35.4688 41.0938ZM32.0312 44.5L31.6432 43.5783L31.6343 43.5821L32.0312 44.5ZM4.65625 44.5L4.25932 45.4179L4.26819 45.4216L4.65625 44.5ZM2.625 43.125L1.91789 43.8321L2.625 43.125ZM1.25 41.0938L0.328322 41.4818L0.332143 41.4907L1.25 41.0938ZM1.25 4.125L2.1679 4.52193L2.17164 4.51306L1.25 4.125ZM2.625 2.09375L3.31914 2.81359L3.32568 2.80728L3.33211 2.80086L2.625 2.09375ZM4.65625 0.71875L5.05319 1.63668L5.06462 1.63157L4.65625 0.71875ZM32.0312 0.71875L31.6137 1.62743L31.6284 1.63414L31.6432 1.64039L32.0312 0.71875ZM34.0938 2.09375L33.3866 2.80086L33.3931 2.80728L33.3996 2.81359L34.0938 2.09375ZM35.4688 4.125L34.5471 4.51307L34.5509 4.52191L35.4688 4.125ZM7.15625 6.59375V5.59375H6.15625V6.59375H7.15625ZM7.15625 38.5938H6.15625V39.5938H7.15625V38.5938ZM29.5625 38.5938V39.5938H30.5625V38.5938H29.5625ZM29.5625 6.59375H30.5625V5.59375H29.5625V6.59375ZM34.9688 38.5938C34.9688 39.338 34.8277 40.0392 34.5471 40.7057L36.3904 41.4818C36.7764 40.565 36.9688 39.5995 36.9688 38.5938H34.9688ZM34.5509 40.6968C34.2667 41.354 33.8792 41.9254 33.3866 42.4179L34.8009 43.8321C35.475 43.158 36.0041 42.3751 36.3866 41.4907L34.5509 40.6968ZM33.3866 42.4179C32.8985 42.906 32.3206 43.2931 31.6432 43.5784L32.4193 45.4216C33.3252 45.0402 34.1223 44.5107 34.8009 43.8321L33.3866 42.4179ZM31.6343 43.5821C30.9941 43.859 30.3068 44 29.5625 44V46C30.5682 46 31.5268 45.8076 32.4282 45.4179L31.6343 43.5821ZM29.5625 44H7.15625V46H29.5625V44ZM7.15625 44C6.41198 44 5.71081 43.859 5.04431 43.5784L4.26819 45.4216C5.18503 45.8077 6.15052 46 7.15625 46V44ZM5.05316 43.5821C4.39596 43.2979 3.82463 42.9104 3.33211 42.4179L1.91789 43.8321C2.59204 44.5063 3.37487 45.0354 4.25934 45.4179L5.05316 43.5821ZM3.33211 42.4179C2.83958 41.9254 2.45205 41.354 2.16786 40.6968L0.332143 41.4907C0.714614 42.3751 1.24375 43.158 1.91789 43.8321L3.33211 42.4179ZM2.17164 40.7057C1.891 40.0392 1.75 39.338 1.75 38.5938H-0.25C-0.25 39.5995 -0.05767 40.565 0.328365 41.4818L2.17164 40.7057ZM1.75 38.5938V6.59375H-0.25V38.5938H1.75ZM1.75 6.59375C1.75 5.84943 1.89098 5.16218 2.16786 4.52191L0.332143 3.72809C-0.0576493 4.62948 -0.25 5.58807 -0.25 6.59375H1.75ZM2.17164 4.51306C2.4556 3.83864 2.8391 3.27648 3.31914 2.81359L1.93086 1.37391C1.24423 2.03602 0.711068 2.82802 0.328365 3.73694L2.17164 4.51306ZM3.33211 2.80086C3.82463 2.30833 4.39596 1.9208 5.05316 1.63661L4.25934 -0.199107C3.37487 0.183364 2.59204 0.712499 1.91789 1.38664L3.33211 2.80086ZM5.06462 1.63157C5.72664 1.3354 6.4207 1.1875 7.15625 1.1875V-0.8125C6.1418 -0.8125 5.1692 -0.606234 4.24788 -0.194068L5.06462 1.63157ZM7.15625 1.1875H29.5625V-0.8125H7.15625V1.1875ZM29.5625 1.1875C30.298 1.1875 30.978 1.33535 31.6137 1.62743L32.4488 -0.189927C31.5428 -0.60618 30.577 -0.8125 29.5625 -0.8125V1.1875ZM31.6432 1.64039C32.3206 1.92563 32.8985 2.31276 33.3866 2.80086L34.8009 1.38664C34.1223 0.708073 33.3252 0.17854 32.4193 -0.202885L31.6432 1.64039ZM33.3996 2.81359C33.8796 3.27648 34.2632 3.83864 34.5471 4.51306L36.3904 3.73694C36.0077 2.82802 35.4745 2.03602 34.7879 1.37391L33.3996 2.81359ZM34.5509 4.52191C34.8278 5.16218 34.9688 5.84943 34.9688 6.59375H36.9688C36.9688 5.58807 36.7764 4.62948 36.3866 3.72809L34.5509 4.52191ZM34.9688 6.59375V38.5938H36.9688V6.59375H34.9688ZM6.15625 6.59375V38.5938H8.15625V6.59375H6.15625ZM7.15625 39.5938H29.5625V37.5938H7.15625V39.5938ZM30.5625 38.5938V6.59375H28.5625V38.5938H30.5625ZM29.5625 5.59375H7.15625V7.59375H29.5625V5.59375ZM44.6175 31.4375V30.4375H43.6175V31.4375H44.6175ZM50.8988 31.4375H51.8988V30.4375H50.8988V31.4375ZM72.305 37.5312L71.579 36.8435L72.305 37.5312ZM55.3675 25.4688H54.3675V26.4688H55.3675V25.4688ZM55.3675 19.2188V18.2188H54.3675V19.2188H55.3675ZM68.43 19.2188V20.2188H68.45L68.47 20.218L68.43 19.2188ZM71.7738 17.9688L71.0187 17.3131L71.0174 17.3146L71.7738 17.9688ZM71.6488 7.65625L70.9227 8.34406L70.9323 8.35387L71.6488 7.65625ZM51.555 13.7812V14.7812H52.555V13.7812H51.555ZM45.2738 13.7812H44.2738V14.7812H45.2738V13.7812ZM76.3675 2.875L75.6563 3.57797L75.6604 3.58211L76.3675 2.875ZM77.7113 18.1562L76.8329 17.6782L76.8308 17.6822L77.7113 18.1562ZM73.8675 21.7812L73.4428 20.8759L71.0632 21.9923L73.5831 22.7399L73.8675 21.7812ZM44.6175 32.4375H50.8988V30.4375H44.6175V32.4375ZM49.8988 31.4375V33.8125H51.8988V31.4375H49.8988ZM49.8988 33.8125C49.8988 35.6203 50.2966 37.1622 51.2978 38.219L52.7497 36.8435C52.2509 36.3169 51.8988 35.3797 51.8988 33.8125H49.8988ZM51.2978 38.219C52.3206 39.2986 53.8806 39.7188 55.7113 39.7188V37.7188C54.1252 37.7188 53.2269 37.3472 52.7497 36.8435L51.2978 38.219ZM55.7113 39.7188H68.6175V37.7188H55.7113V39.7188ZM68.6175 39.7188C70.4481 39.7188 72.0081 39.2986 73.031 38.219L71.579 36.8435C71.1019 37.3472 70.2035 37.7188 68.6175 37.7188V39.7188ZM73.031 38.219C74.0321 37.1622 74.43 35.6203 74.43 33.8125H72.43C72.43 35.3797 72.0779 36.3169 71.579 36.8435L73.031 38.219ZM74.43 33.8125V30.3438H72.43V33.8125H74.43ZM74.43 30.3438C74.43 28.5223 74.0352 26.9693 73.0217 25.9276L71.5883 27.3224C72.0748 27.8224 72.43 28.7485 72.43 30.3438H74.43ZM73.0217 25.9276C71.998 24.8754 70.4418 24.4688 68.6175 24.4688V26.4688C70.2098 26.4688 71.112 26.8329 71.5883 27.3224L73.0217 25.9276ZM68.6175 24.4688H55.3675V26.4688H68.6175V24.4688ZM56.3675 25.4688V19.2188H54.3675V25.4688H56.3675ZM55.3675 20.2188H68.43V18.2188H55.3675V20.2188ZM68.47 20.218C70.1627 20.1502 71.6052 19.6923 72.5301 18.6229L71.0174 17.3146C70.6089 17.7869 69.8223 18.1623 68.39 18.2195L68.47 20.218ZM72.5288 18.6244C73.4411 17.5738 73.805 16.0831 73.805 14.3438H71.805C71.805 15.8544 71.4814 16.7803 71.0187 17.3131L72.5288 18.6244ZM73.805 14.3438V11.4062H71.805V14.3438H73.805ZM73.805 11.4062C73.805 9.57568 73.3957 8.01697 72.3652 6.95863L70.9323 8.35387C71.4435 8.87886 71.805 9.82016 71.805 11.4062H73.805ZM72.3747 6.96851C71.3538 5.89091 69.8067 5.46875 67.9925 5.46875V7.46875C69.5533 7.46875 70.4437 7.83825 70.9228 8.34399L72.3747 6.96851ZM67.9925 5.46875H56.3363V7.46875H67.9925V5.46875ZM56.3363 5.46875C54.5221 5.46875 52.9749 5.89091 51.954 6.96851L53.406 8.34399C53.8851 7.83825 54.7754 7.46875 56.3363 7.46875V5.46875ZM51.954 6.96851C50.9511 8.02716 50.555 9.58166 50.555 11.4062H52.555C52.555 9.81417 52.9089 8.86868 53.406 8.34399L51.954 6.96851ZM50.555 11.4062V13.7812H52.555V11.4062H50.555ZM51.555 12.7812H45.2738V14.7812H51.555V12.7812ZM46.2738 13.7812V11.0938H44.2738V13.7812H46.2738ZM46.2738 11.0938C46.2738 7.61176 47.1412 5.18408 48.7006 3.62015C50.2595 2.05675 52.6786 1.1875 56.1488 1.1875V-0.8125C52.3689 -0.8125 49.3505 0.135957 47.2844 2.20797C45.2188 4.27946 44.2738 7.30491 44.2738 11.0938H46.2738ZM56.1488 1.1875H68.18V-0.8125H56.1488V1.1875ZM68.18 1.1875C71.7242 1.1875 74.1454 2.04934 75.6563 3.57796L77.0787 2.17204C75.0479 0.117323 72.0108 -0.8125 68.18 -0.8125V1.1875ZM75.6604 3.58211C77.1936 5.11532 78.055 7.5507 78.055 11.0938H80.055C80.055 7.2618 79.1247 4.21802 77.0746 2.16789L75.6604 3.58211ZM78.055 11.0938V11.9062H80.055V11.0938H78.055ZM78.055 11.9062C78.055 14.3154 77.6261 16.221 76.8329 17.6782L78.5896 18.6343C79.5881 16.7999 80.055 14.5388 80.055 11.9062H78.055ZM76.8308 17.6822C76.0586 19.1162 74.9381 20.1744 73.4428 20.8759L74.2922 22.6866C76.1719 21.8048 77.6139 20.4463 78.5917 18.6303L76.8308 17.6822ZM73.5831 22.7399C75.2394 23.2314 76.4806 24.1974 77.351 25.6661L79.0715 24.6464C77.9419 22.7401 76.2873 21.4561 74.1519 20.8226L73.5831 22.7399ZM77.351 25.6661C78.2288 27.1473 78.7113 29.1909 78.7113 31.875H80.7113C80.7113 28.9758 80.1937 26.5402 79.0715 24.6464L77.351 25.6661ZM78.7113 31.875V34.125H80.7113V31.875H78.7113ZM78.7113 34.125C78.7113 37.5959 77.8442 40.0153 76.2854 41.5741C74.7266 43.133 72.3071 44 68.8363 44V46C72.6154 46 75.6334 45.0545 77.6996 42.9884C79.7658 40.9222 80.7113 37.9041 80.7113 34.125H78.7113ZM68.8363 44H55.5238V46H68.8363V44ZM55.5238 44C52.0418 44 49.6141 43.1326 48.0502 41.5731C46.4868 40.0142 45.6175 37.5951 45.6175 34.125H43.6175C43.6175 37.9049 44.566 40.9233 46.638 42.9894C48.7095 45.0549 51.7349 46 55.5238 46V44ZM45.6175 34.125V31.4375H43.6175V34.125H45.6175Z" fill="#E1E2E5"/>
</svg>
