<svg width="79" height="45" viewBox="0 0 79 45" fill="none" xmlns="http://www.w3.org/2000/svg">
<path d="M35.4688 41.0938L36.3866 41.4907L36.3904 41.4818L35.4688 41.0938ZM32.0312 44.5L31.6432 43.5783L31.6343 43.5821L32.0312 44.5ZM4.65625 44.5L4.25932 45.4179L4.26819 45.4216L4.65625 44.5ZM2.625 43.125L1.91789 43.8321L2.625 43.125ZM1.25 41.0938L0.328322 41.4818L0.332143 41.4907L1.25 41.0938ZM1.25 4.125L2.1679 4.52193L2.17164 4.51306L1.25 4.125ZM2.625 2.09375L3.31914 2.81359L3.32568 2.80728L3.33211 2.80086L2.625 2.09375ZM4.65625 0.71875L5.05319 1.63668L5.06462 1.63157L4.65625 0.71875ZM32.0312 0.71875L31.6137 1.62743L31.6284 1.63414L31.6432 1.64039L32.0312 0.71875ZM34.0938 2.09375L33.3866 2.80086L33.3931 2.80728L33.3996 2.81359L34.0938 2.09375ZM35.4688 4.125L34.5471 4.51307L34.5509 4.52191L35.4688 4.125ZM7.15625 6.59375V5.59375H6.15625V6.59375H7.15625ZM7.15625 38.5938H6.15625V39.5938H7.15625V38.5938ZM29.5625 38.5938V39.5938H30.5625V38.5938H29.5625ZM29.5625 6.59375H30.5625V5.59375H29.5625V6.59375ZM34.9688 38.5938C34.9688 39.338 34.8277 40.0392 34.5471 40.7057L36.3904 41.4818C36.7764 40.565 36.9688 39.5995 36.9688 38.5938H34.9688ZM34.5509 40.6968C34.2667 41.354 33.8792 41.9254 33.3866 42.4179L34.8009 43.8321C35.475 43.158 36.0041 42.3751 36.3866 41.4907L34.5509 40.6968ZM33.3866 42.4179C32.8985 42.906 32.3206 43.2931 31.6432 43.5784L32.4193 45.4216C33.3252 45.0402 34.1223 44.5107 34.8009 43.8321L33.3866 42.4179ZM31.6343 43.5821C30.9941 43.859 30.3068 44 29.5625 44V46C30.5682 46 31.5268 45.8076 32.4282 45.4179L31.6343 43.5821ZM29.5625 44H7.15625V46H29.5625V44ZM7.15625 44C6.41198 44 5.71081 43.859 5.04431 43.5784L4.26819 45.4216C5.18503 45.8077 6.15052 46 7.15625 46V44ZM5.05316 43.5821C4.39596 43.2979 3.82463 42.9104 3.33211 42.4179L1.91789 43.8321C2.59204 44.5063 3.37487 45.0354 4.25934 45.4179L5.05316 43.5821ZM3.33211 42.4179C2.83958 41.9254 2.45205 41.354 2.16786 40.6968L0.332143 41.4907C0.714614 42.3751 1.24375 43.158 1.91789 43.8321L3.33211 42.4179ZM2.17164 40.7057C1.891 40.0392 1.75 39.338 1.75 38.5938H-0.25C-0.25 39.5995 -0.05767 40.565 0.328365 41.4818L2.17164 40.7057ZM1.75 38.5938V6.59375H-0.25V38.5938H1.75ZM1.75 6.59375C1.75 5.84943 1.89098 5.16218 2.16786 4.52191L0.332143 3.72809C-0.0576493 4.62948 -0.25 5.58807 -0.25 6.59375H1.75ZM2.17164 4.51306C2.4556 3.83864 2.8391 3.27648 3.31914 2.81359L1.93086 1.37391C1.24423 2.03602 0.711068 2.82802 0.328365 3.73694L2.17164 4.51306ZM3.33211 2.80086C3.82463 2.30833 4.39596 1.9208 5.05316 1.63661L4.25934 -0.199107C3.37487 0.183364 2.59204 0.712499 1.91789 1.38664L3.33211 2.80086ZM5.06462 1.63157C5.72664 1.3354 6.4207 1.1875 7.15625 1.1875V-0.8125C6.1418 -0.8125 5.1692 -0.606234 4.24788 -0.194068L5.06462 1.63157ZM7.15625 1.1875H29.5625V-0.8125H7.15625V1.1875ZM29.5625 1.1875C30.298 1.1875 30.978 1.33535 31.6137 1.62743L32.4488 -0.189927C31.5428 -0.60618 30.577 -0.8125 29.5625 -0.8125V1.1875ZM31.6432 1.64039C32.3206 1.92563 32.8985 2.31276 33.3866 2.80086L34.8009 1.38664C34.1223 0.708073 33.3252 0.17854 32.4193 -0.202885L31.6432 1.64039ZM33.3996 2.81359C33.8796 3.27648 34.2632 3.83864 34.5471 4.51306L36.3904 3.73694C36.0077 2.82802 35.4745 2.03602 34.7879 1.37391L33.3996 2.81359ZM34.5509 4.52191C34.8278 5.16218 34.9688 5.84943 34.9688 6.59375H36.9688C36.9688 5.58807 36.7764 4.62948 36.3866 3.72809L34.5509 4.52191ZM34.9688 6.59375V38.5938H36.9688V6.59375H34.9688ZM6.15625 6.59375V38.5938H8.15625V6.59375H6.15625ZM7.15625 39.5938H29.5625V37.5938H7.15625V39.5938ZM30.5625 38.5938V6.59375H28.5625V38.5938H30.5625ZM29.5625 5.59375H7.15625V7.59375H29.5625V5.59375ZM42.7113 29.5625L41.9121 28.9614L41.7113 29.2284V29.5625H42.7113ZM64.805 0.1875V-0.8125H64.3059L64.0058 -0.413588L64.805 0.1875ZM72.3363 0.1875H73.3363V-0.8125H72.3363V0.1875ZM72.3363 29.5625H71.3363V30.5625H72.3363V29.5625ZM78.3675 29.5625H79.3675V28.5625H78.3675V29.5625ZM78.3675 35.7188V36.7188H79.3675V35.7188H78.3675ZM72.3363 35.7188V34.7188H71.3363V35.7188H72.3363ZM72.3363 45V46H73.3363V45H72.3363ZM65.93 45H64.93V46H65.93V45ZM65.93 35.7188H66.93V34.7188H65.93V35.7188ZM42.7113 35.7188H41.7113V36.7188H42.7113V35.7188ZM65.93 29.5625V30.5625H66.93V29.5625H65.93ZM65.93 7.9375H66.93V4.94211L65.1306 7.33676L65.93 7.9375ZM49.68 29.5625L48.8806 28.9618L47.6777 30.5625H49.68V29.5625ZM43.5104 30.1636L65.6042 0.788588L64.0058 -0.413588L41.9121 28.9614L43.5104 30.1636ZM64.805 1.1875H72.3363V-0.8125H64.805V1.1875ZM71.3363 0.1875V29.5625H73.3363V0.1875H71.3363ZM72.3363 30.5625H78.3675V28.5625H72.3363V30.5625ZM77.3675 29.5625V35.7188H79.3675V29.5625H77.3675ZM78.3675 34.7188H72.3363V36.7188H78.3675V34.7188ZM71.3363 35.7188V45H73.3363V35.7188H71.3363ZM72.3363 44H65.93V46H72.3363V44ZM66.93 45V35.7188H64.93V45H66.93ZM65.93 34.7188H42.7113V36.7188H65.93V34.7188ZM43.7113 35.7188V29.5625H41.7113V35.7188H43.7113ZM66.93 29.5625V7.9375H64.93V29.5625H66.93ZM65.1306 7.33676L48.8806 28.9618L50.4794 30.1632L66.7294 8.53824L65.1306 7.33676ZM49.68 30.5625H65.93V28.5625H49.68V30.5625Z" fill="#E1E2E5"/>
</svg>
