<svg width="102" height="45" viewBox="0 0 102 45" fill="none" xmlns="http://www.w3.org/2000/svg">
<path d="M40.4688 41.0938L41.3866 41.4907L41.3904 41.4818L40.4688 41.0938ZM37.0312 44.5L36.6432 43.5783L36.6343 43.5821L37.0312 44.5ZM9.65625 44.5L9.25932 45.4179L9.26819 45.4216L9.65625 44.5ZM7.625 43.125L6.91789 43.8321L7.625 43.125ZM6.25 41.0938L5.32832 41.4818L5.33214 41.4907L6.25 41.0938ZM6.25 4.125L7.1679 4.52193L7.17164 4.51306L6.25 4.125ZM7.625 2.09375L8.31914 2.81359L8.32568 2.80728L8.33211 2.80086L7.625 2.09375ZM9.65625 0.71875L10.0532 1.63668L10.0646 1.63157L9.65625 0.71875ZM37.0312 0.71875L36.6137 1.62743L36.6284 1.63414L36.6432 1.64039L37.0312 0.71875ZM39.0938 2.09375L38.3866 2.80086L38.3931 2.80728L38.3996 2.81359L39.0938 2.09375ZM40.4688 4.125L39.5471 4.51307L39.5509 4.52191L40.4688 4.125ZM12.1562 6.59375V5.59375H11.1562V6.59375H12.1562ZM12.1562 38.5938H11.1562V39.5938H12.1562V38.5938ZM34.5625 38.5938V39.5938H35.5625V38.5938H34.5625ZM34.5625 6.59375H35.5625V5.59375H34.5625V6.59375ZM39.9688 38.5938C39.9688 39.338 39.8277 40.0392 39.5471 40.7057L41.3904 41.4818C41.7764 40.565 41.9688 39.5995 41.9688 38.5938H39.9688ZM39.5509 40.6968C39.2667 41.354 38.8792 41.9254 38.3866 42.4179L39.8009 43.8321C40.475 43.158 41.0041 42.3751 41.3866 41.4907L39.5509 40.6968ZM38.3866 42.4179C37.8985 42.906 37.3206 43.2931 36.6432 43.5784L37.4193 45.4216C38.3252 45.0402 39.1223 44.5107 39.8009 43.8321L38.3866 42.4179ZM36.6343 43.5821C35.9941 43.859 35.3068 44 34.5625 44V46C35.5682 46 36.5268 45.8076 37.4282 45.4179L36.6343 43.5821ZM34.5625 44H12.1562V46H34.5625V44ZM12.1562 44C11.412 44 10.7108 43.859 10.0443 43.5784L9.26819 45.4216C10.185 45.8077 11.1505 46 12.1562 46V44ZM10.0532 43.5821C9.39596 43.2979 8.82463 42.9104 8.33211 42.4179L6.91789 43.8321C7.59204 44.5063 8.37487 45.0354 9.25934 45.4179L10.0532 43.5821ZM8.33211 42.4179C7.83958 41.9254 7.45205 41.354 7.16786 40.6968L5.33214 41.4907C5.71461 42.3751 6.24375 43.158 6.91789 43.8321L8.33211 42.4179ZM7.17164 40.7057C6.891 40.0392 6.75 39.338 6.75 38.5938H4.75C4.75 39.5995 4.94233 40.565 5.32836 41.4818L7.17164 40.7057ZM6.75 38.5938V6.59375H4.75V38.5938H6.75ZM6.75 6.59375C6.75 5.84943 6.89098 5.16218 7.16786 4.52191L5.33214 3.72809C4.94235 4.62948 4.75 5.58807 4.75 6.59375H6.75ZM7.17164 4.51306C7.4556 3.83864 7.8391 3.27648 8.31914 2.81359L6.93086 1.37391C6.24423 2.03602 5.71107 2.82802 5.32836 3.73694L7.17164 4.51306ZM8.33211 2.80086C8.82463 2.30833 9.39596 1.9208 10.0532 1.63661L9.25934 -0.199107C8.37487 0.183364 7.59204 0.712499 6.91789 1.38664L8.33211 2.80086ZM10.0646 1.63157C10.7266 1.3354 11.4207 1.1875 12.1562 1.1875V-0.8125C11.1418 -0.8125 10.1692 -0.606234 9.24788 -0.194068L10.0646 1.63157ZM12.1562 1.1875H34.5625V-0.8125H12.1562V1.1875ZM34.5625 1.1875C35.298 1.1875 35.978 1.33535 36.6137 1.62743L37.4488 -0.189927C36.5428 -0.60618 35.577 -0.8125 34.5625 -0.8125V1.1875ZM36.6432 1.64039C37.3206 1.92563 37.8985 2.31276 38.3866 2.80086L39.8009 1.38664C39.1223 0.708073 38.3252 0.17854 37.4193 -0.202885L36.6432 1.64039ZM38.3996 2.81359C38.8796 3.27648 39.2632 3.83864 39.5471 4.51306L41.3904 3.73694C41.0077 2.82802 40.4745 2.03602 39.7879 1.37391L38.3996 2.81359ZM39.5509 4.52191C39.8278 5.16218 39.9688 5.84943 39.9688 6.59375H41.9688C41.9688 5.58807 41.7764 4.62948 41.3866 3.72809L39.5509 4.52191ZM39.9688 6.59375V38.5938H41.9688V6.59375H39.9688ZM11.1562 6.59375V38.5938H13.1562V6.59375H11.1562ZM12.1562 39.5938H34.5625V37.5938H12.1562V39.5938ZM35.5625 38.5938V6.59375H33.5625V38.5938H35.5625ZM34.5625 5.59375H12.1562V7.59375H34.5625V5.59375ZM83.43 34.125L84.4299 34.1421L84.43 34.1336V34.125H83.43ZM80.68 42.3125L81.3912 43.0155L81.3953 43.0113L80.68 42.3125ZM49.6175 31.4375V30.4375H48.6175V31.4375H49.6175ZM55.8988 31.4375H56.8988V30.4375H55.8988V31.4375ZM76.0238 37.5312L75.2978 36.8435L76.0238 37.5312ZM76.0238 24.0938L75.2977 24.7816L75.307 24.7911L76.0238 24.0938ZM50.8988 22.9062H49.8988V23.9062H50.8988V22.9062ZM50.8988 0.1875V-0.8125H49.8988V0.1875H50.8988ZM82.2738 0.1875H83.2738V-0.8125H82.2738V0.1875ZM82.2738 6.59375V7.59375H83.2738V6.59375H82.2738ZM57.305 6.59375V5.59375H56.305V6.59375H57.305ZM57.305 16.6562H56.305V17.6562H57.305V16.6562ZM80.7425 19.3438L80.0354 20.0509L80.0395 20.055L80.7425 19.3438ZM82.4301 34.1079C82.3701 37.61 81.492 40.0504 79.9647 41.6137L81.3953 43.0113C83.4096 40.9496 84.3649 37.9316 84.4299 34.1421L82.4301 34.1079ZM79.9688 41.6095C78.4561 43.1401 76.0536 44 72.555 44V46C76.3481 46 79.3623 45.0683 81.3912 43.0155L79.9688 41.6095ZM72.555 44H60.5238V46H72.555V44ZM60.5238 44C57.0418 44 54.6141 43.1326 53.0502 41.5731C51.4868 40.0142 50.6175 37.5951 50.6175 34.125H48.6175C48.6175 37.9049 49.566 40.9233 51.638 42.9894C53.7095 45.0549 56.7349 46 60.5238 46V44ZM50.6175 34.125V31.4375H48.6175V34.125H50.6175ZM49.6175 32.4375H55.8988V30.4375H49.6175V32.4375ZM54.8988 31.4375V33.8125H56.8988V31.4375H54.8988ZM54.8988 33.8125C54.8988 35.6203 55.2966 37.1622 56.2978 38.219L57.7497 36.8435C57.2509 36.3169 56.8988 35.3797 56.8988 33.8125H54.8988ZM56.2978 38.219C57.3206 39.2986 58.8806 39.7188 60.7113 39.7188V37.7188C59.1252 37.7188 58.2269 37.3472 57.7497 36.8435L56.2978 38.219ZM60.7113 39.7188H72.3363V37.7188H60.7113V39.7188ZM72.3363 39.7188C74.1669 39.7188 75.7269 39.2986 76.7497 38.219L75.2978 36.8435C74.8206 37.3472 73.9223 37.7188 72.3363 37.7188V39.7188ZM76.7497 38.219C77.7509 37.1622 78.1488 35.6203 78.1488 33.8125H76.1488C76.1488 35.3797 75.7966 36.3169 75.2978 36.8435L76.7497 38.219ZM78.1488 33.8125V27.7812H76.1488V33.8125H78.1488ZM78.1488 27.7812C78.1488 25.9765 77.7521 24.4361 76.7405 23.3964L75.307 24.7911C75.7954 25.293 76.1488 26.211 76.1488 27.7812H78.1488ZM76.7497 23.406C75.7269 22.3264 74.1669 21.9062 72.3363 21.9062V23.9062C73.9223 23.9062 74.8206 24.2778 75.2978 24.7815L76.7497 23.406ZM72.3363 21.9062H50.8988V23.9062H72.3363V21.9062ZM51.8988 22.9062V0.1875H49.8988V22.9062H51.8988ZM50.8988 1.1875H82.2738V-0.8125H50.8988V1.1875ZM81.2738 0.1875V6.59375H83.2738V0.1875H81.2738ZM82.2738 5.59375H57.305V7.59375H82.2738V5.59375ZM56.305 6.59375V16.6562H58.305V6.59375H56.305ZM57.305 17.6562H72.555V15.6562H57.305V17.6562ZM72.555 17.6562C76.0753 17.6562 78.5012 18.5167 80.0354 20.0509L81.4496 18.6366C79.4004 16.5875 76.368 15.6562 72.555 15.6562V17.6562ZM80.0395 20.055C81.5682 21.5658 82.43 23.9871 82.43 27.5312H84.43C84.43 23.7004 83.5002 20.6633 81.4455 18.6325L80.0395 20.055ZM82.43 27.5312V34.125H84.43V27.5312H82.43Z" fill="#E1E2E5"/>
</svg>
