<svg width="83" height="83" viewBox="0 0 83 83" fill="none" xmlns="http://www.w3.org/2000/svg">
<path d="M20.7785 69.6665L20.7785 69.6667H20.7915H72.125V75.5833H20.75C18.7613 75.5833 16.2812 74.9212 14.309 73.3584C12.3548 71.8098 10.875 69.3597 10.875 65.7083V17.2917C10.875 13.6403 12.3548 11.1902 14.309 9.64161C16.2812 8.07874 18.7613 7.41666 20.75 7.41666H65.7083C69.2467 7.41666 72.125 10.2949 72.125 13.8333V61.75H20.7915V61.7498L20.7785 61.7502C19.9326 61.7721 18.9355 61.9501 18.1406 62.5521C17.3187 63.1746 16.7917 64.1893 16.7917 65.7083C16.7917 67.2273 17.3187 68.2421 18.1406 68.8645C18.9355 69.4666 19.9326 69.6445 20.7785 69.6665ZM20.75 13.3333V13.3331L20.7367 13.3335C19.9097 13.3556 18.9232 13.5342 18.1339 14.1366C17.3185 14.7589 16.7917 15.7728 16.7917 17.2917V27.6667V55.3333V55.8333H17.2917H65.7083H66.2083V55.3333V13.8333V13.3333H65.7083H20.75Z" stroke="#C5C5C5"/>
<path d="M28.1667 21.25H58.2917V27.1667H28.1667V21.25Z" stroke="#C5C5C5"/>
</svg>
