<svg width="73" height="73" viewBox="0 0 73 73" fill="none" xmlns="http://www.w3.org/2000/svg">
<path d="M60.5814 53.4725L60.3333 53.6172V53.9044V54.75V55.25H60.8333H66.4167V60.3333H6.58333V55.25H12.1667H12.6667V54.75V53.9044V53.6172L12.4186 53.4725C10.752 52.5006 9.62499 50.7158 9.62499 48.6667V15.2083C9.62499 12.1295 12.1295 9.625 15.2083 9.625H57.7917C60.8705 9.625 63.375 12.1295 63.375 15.2083V48.6667C63.375 50.7187 62.2481 52.5005 60.5814 53.4725ZM14.7083 48.6667V49.1667H15.2083H57.7977H58.2978L58.2977 48.6666L58.2917 15.2082L58.2916 14.7083H57.7917H15.2083H14.7083V15.2083V48.6667Z" stroke="#C5C5C5"/>
</svg>
