<svg width="24" height="24" viewBox="0 0 24 24" fill="none" xmlns="http://www.w3.org/2000/svg">
<path d="M16.6466 5.93945L14.2071 3.5H20.5V9.79289L18.0606 7.35345L17.707 6.99989L17.3534 7.35345L10.707 13.9999L10.0001 13.293L16.6466 6.64655L17.0001 6.293L16.6466 5.93945Z" fill="#C5C5C5" stroke="#C5C5C5"/>
<path d="M19 19.5H19.5V19V13.2071L20.5 14.2071V19C20.5 19.8269 19.8269 20.5 19 20.5H5C4.17314 20.5 3.5 19.8269 3.5 19V5C3.5 4.17314 4.17314 3.5 5 3.5H9.79289L10.7929 4.5H5H4.5V5V19V19.5H5H19Z" stroke="#C5C5C5"/>
</svg>
