<svg width="87" height="87" viewBox="0 0 87 87" fill="none" xmlns="http://www.w3.org/2000/svg">
<path d="M57.5 43.5C57.5 51.232 51.232 57.5 43.5 57.5C35.768 57.5 29.5 51.232 29.5 43.5C29.5 35.768 35.768 29.5 43.5 29.5C51.232 29.5 57.5 35.768 57.5 43.5Z" stroke="#C5C5C5"/>
<path d="M47.125 14.7501L47.0618 15.2461C53.3313 16.0454 59.1579 18.9039 63.627 23.373C68.0961 27.8421 70.9546 33.6687 71.7539 39.9382L71.8096 40.375H72.2499H79.25V46.625H72.2499H71.8095L71.7539 47.0618C70.9552 53.3315 68.0969 59.1585 63.6277 63.6277C59.1585 68.0969 53.3315 70.9552 47.0618 71.7539L46.625 71.8095V72.2499V79.25H40.375V72.2499V71.8096L39.9382 71.7539C33.6687 70.9546 27.8421 68.0961 23.373 63.627C18.9039 59.1579 16.0454 53.3313 15.2461 47.0618L15.1904 46.625H14.7501H7.75V40.375H14.7501H15.1903L15.2461 39.9383C16.0465 33.6693 18.9055 27.8433 23.3744 23.3744C27.8433 18.9055 33.6693 16.0465 39.9383 15.2461L40.375 15.1903V14.7501V7.75H46.625V14.7501H47.125ZM21.25 43.5C21.25 55.7713 31.2287 65.75 43.5 65.75C55.7713 65.75 65.75 55.7713 65.75 43.5C65.75 31.2287 55.7713 21.25 43.5 21.25C31.2287 21.25 21.25 31.2287 21.25 43.5Z" stroke="#C5C5C5"/>
</svg>
