<svg width="162" height="60" viewBox="0 0 162 60" fill="none" xmlns="http://www.w3.org/2000/svg">
<path d="M10.56 25.8801V40.7301H29.799V47.0001H2.31V25.8801H10.56ZM66.5399 40.5321L63.4709 42.2811V25.8801H71.7209V47.0001H63.4709L38.6219 32.6121L41.6909 30.8301V47.0001H33.4409V25.8801H41.6909L66.5399 40.5321ZM100.094 25.8801C103.064 25.8801 105.517 26.1661 107.453 26.7381C109.389 27.3101 110.907 28.0911 112.007 29.0811C113.107 30.0711 113.877 31.2041 114.317 32.4801C114.779 33.7341 115.01 35.0541 115.01 36.4401C115.01 37.8261 114.757 39.1571 114.251 40.4331C113.745 41.6871 112.909 42.8091 111.743 43.7991C110.599 44.7891 109.07 45.5701 107.156 46.1421C105.264 46.7141 102.91 47.0001 100.094 47.0001H76.3344V25.8801H100.094ZM84.5844 40.4001H99.7644C100.996 40.4001 102.041 40.3231 102.899 40.1691C103.757 39.9931 104.439 39.7401 104.945 39.4101C105.473 39.0801 105.847 38.6731 106.067 38.1891C106.309 37.6831 106.43 37.1001 106.43 36.4401C106.43 35.7801 106.309 35.2081 106.067 34.7241C105.847 34.2181 105.473 33.8001 104.945 33.4701C104.439 33.1401 103.757 32.8981 102.899 32.7441C102.041 32.5681 100.996 32.4801 99.7644 32.4801H84.5844V40.4001Z" fill="#18191D"/>
<path d="M147.359 14.4885C150.522 17.6517 152.468 21.8296 152.853 26.2864C153.239 30.7432 152.039 35.193 149.466 38.8524C146.893 42.5117 143.111 45.1457 138.787 46.2907C134.462 47.4356 129.872 47.018 125.826 45.1113C121.779 43.2047 118.535 39.9313 116.664 35.8677C114.794 31.804 114.417 27.2107 115.601 22.8967C116.784 18.5827 119.452 14.8246 123.134 12.2843C126.816 9.74394 131.277 8.58431 135.73 9.00959" stroke="#E1E2E5"/>
<path d="M147.505 14.1213C145.674 15.952 143.843 17.7827 142.013 19.6135C140.639 20.9876 139.265 22.3617 137.89 23.7358C137.29 24.3358 136.692 24.9373 136.09 25.5359C135.471 26.1526 134.796 26.7162 134.179 27.3329" stroke="#E1E2E5" stroke-linecap="round"/>
</svg>
