<svg width="90" height="90" viewBox="0 0 90 90" fill="none" xmlns="http://www.w3.org/2000/svg">
<path d="M24.8125 75V75.5H25.3125H62.82H63.3201L63.32 74.9999L63.3125 14.9999L63.3124 14.5H62.8125H25.3125H24.8125V15V75ZM25.3125 8H62.8125C66.6726 8 69.8125 11.1399 69.8125 15V75C69.8125 78.8601 66.6726 82 62.8125 82H25.3125C21.4524 82 18.3125 78.8601 18.3125 75V15C18.3125 11.1399 21.4524 8 25.3125 8Z" fill="black" fill-opacity="0.02" stroke="#C5C5C5"/>
<path d="M47.3125 67.5C47.3125 69.2949 45.8574 70.75 44.0625 70.75C42.2676 70.75 40.8125 69.2949 40.8125 67.5C40.8125 65.7051 42.2676 64.25 44.0625 64.25C45.8574 64.25 47.3125 65.7051 47.3125 67.5Z" stroke="#C5C5C5"/>
</svg>
